<svg width="54" height="54" viewBox="0 0 54 54" fill="none" xmlns="http://www.w3.org/2000/svg">
<rect x="1" y="1" width="52" height="52" rx="26" fill="#000511"/>
<rect x="1" y="1" width="52" height="52" rx="26" stroke="#CFE7FF" stroke-width="2"/>
<rect width="16" height="0" transform="translate(19 27)" fill="#000511"/>
<path d="M35 28C35.5523 28 36 27.5523 36 27C36 26.4477 35.5523 26 35 26V28ZM18.2929 26.2929C17.9024 26.6834 17.9024 27.3166 18.2929 27.7071L24.6569 34.0711C25.0474 34.4616 25.6805 34.4616 26.0711 34.0711C26.4616 33.6805 26.4616 33.0474 26.0711 32.6569L20.4142 27L26.0711 21.3431C26.4616 20.9526 26.4616 20.3195 26.0711 19.9289C25.6805 19.5384 25.0474 19.5384 24.6569 19.9289L18.2929 26.2929ZM35 26L19 26V28L35 28V26Z" fill="white"/>
</svg>
