<svg width="244" height="244" viewBox="0 0 244 244" fill="none" xmlns="http://www.w3.org/2000/svg">
<g opacity="0.34">
<path d="M122 198.25C164.112 198.25 198.25 164.112 198.25 122C198.25 79.8883 164.112 45.75 122 45.75C79.8883 45.75 45.75 79.8883 45.75 122C45.75 164.112 79.8883 198.25 122 198.25Z" stroke="#CFE7FF" stroke-width="6.5" stroke-linecap="round" stroke-linejoin="round"/>
<path d="M122 152.5C138.845 152.5 152.5 138.845 152.5 122C152.5 105.155 138.845 91.5 122 91.5C105.155 91.5 91.5 105.155 91.5 122C91.5 138.845 105.155 152.5 122 152.5Z" stroke="#CFE7FF" stroke-width="6.5" stroke-linecap="round" stroke-linejoin="round"/>
<path d="M122 40.6666V20.3333" stroke="#CFE7FF" stroke-width="6.5" stroke-linecap="round" stroke-linejoin="round"/>
<path d="M40.6666 122H20.3333" stroke="#CFE7FF" stroke-width="6.5" stroke-linecap="round" stroke-linejoin="round"/>
<path d="M122 203.333V223.667" stroke="#CFE7FF" stroke-width="6.5" stroke-linecap="round" stroke-linejoin="round"/>
<path d="M203.333 122H223.667" stroke="#CFE7FF" stroke-width="6.5" stroke-linecap="round" stroke-linejoin="round"/>
</g>
</svg>
