<svg width="204" height="204" viewBox="0 0 204 204" fill="none" xmlns="http://www.w3.org/2000/svg">
    <g opacity="0.34">
        <path
            d="M132.43 102C132.43 118.83 118.83 132.43 102 132.43C85.17 132.43 71.57 118.83 71.57 102C71.57 85.1701 85.17 71.5701 102 71.5701C118.83 71.5701 132.43 85.1701 132.43 102Z"
            stroke="#CFE7FF" stroke-width="6.5" stroke-linecap="round" stroke-linejoin="round" />
        <path
            d="M102 172.295C132.005 172.295 159.97 154.615 179.435 124.015C187.085 112.03 187.085 91.8851 179.435 79.9001C159.97 49.3001 132.005 31.6201 102 31.6201C71.995 31.6201 44.03 49.3001 24.565 79.9001C16.915 91.8851 16.915 112.03 24.565 124.015C44.03 154.615 71.995 172.295 102 172.295Z"
            stroke="#CFE7FF" stroke-width="6.5" stroke-linecap="round" stroke-linejoin="round" />
    </g>
</svg>